<svg width="24" height="24" viewBox="0 0 24 24" fill="none" xmlns="http://www.w3.org/2000/svg">
<path fill-rule="evenodd" clip-rule="evenodd" d="M4 6C4 4.89543 4.89543 4 6 4C7.10457 4 8 4.89543 8 6C8 7.10457 7.10457 8 6 8C4.89543 8 4 7.10457 4 6ZM6 2C3.79086 2 2 3.79086 2 6C2 7.86384 3.27477 9.42994 5 9.87398V10C5 10.7956 5.31607 11.5587 5.87868 12.1213C6.44129 12.6839 7.20435 13 8 13H11V14.126C9.27477 14.5701 8 16.1362 8 18C8 20.2091 9.79086 22 12 22C14.2091 22 16 20.2091 16 18C16 16.1362 14.7252 14.5701 13 14.126V13H16C16.7957 13 17.5587 12.6839 18.1213 12.1213C18.6839 11.5587 19 10.7957 19 10V9.87398C20.7252 9.42994 22 7.86384 22 6C22 3.79086 20.2091 2 18 2C15.7909 2 14 3.79086 14 6C14 7.86384 15.2748 9.42994 17 9.87398V10C17 10.2652 16.8946 10.5196 16.7071 10.7071C16.5196 10.8946 16.2652 11 16 11H12H8C7.73478 11 7.48043 10.8946 7.29289 10.7071C7.10536 10.5196 7 10.2652 7 10V9.87398C8.72523 9.42994 10 7.86384 10 6C10 3.79086 8.20914 2 6 2ZM16 6C16 4.89543 16.8954 4 18 4C19.1046 4 20 4.89543 20 6C20 7.10457 19.1046 8 18 8C16.8954 8 16 7.10457 16 6ZM12 16C10.8954 16 10 16.8954 10 18C10 19.1046 10.8954 20 12 20C13.1046 20 14 19.1046 14 18C14 16.8954 13.1046 16 12 16Z" fill="url(#paint0_linear_601_8512)"/>
<defs>
<linearGradient id="paint0_linear_601_8512" x1="26.8072" y1="4.85712" x2="-2.35913" y2="5.18096" gradientUnits="userSpaceOnUse">
<stop stop-color="#ED2A3A"/>
<stop offset="1" stop-color="#F7983B"/>
</linearGradient>
</defs>
</svg>
