<svg width="24" height="24" viewBox="0 0 24 24" fill="none" xmlns="http://www.w3.org/2000/svg">
<path d="M14.247 8.40555C14.2627 10.8624 12.2561 12.8831 9.78629 12.8972C9.19521 12.9011 8.60915 12.7884 8.06165 12.5657C7.51415 12.3429 7.01594 12.0143 6.59553 11.5988C6.17512 11.1833 5.84075 10.689 5.61156 10.1442C5.38236 9.59931 5.26284 9.01462 5.25982 8.42353C5.24746 5.96891 7.25072 3.92686 9.68399 3.90831C12.2218 3.89145 14.2307 5.87111 14.247 8.40555ZM7.06299 8.38306C7.05786 8.91813 7.21196 9.44264 7.50569 9.88991C7.79941 10.3372 8.2195 10.687 8.71255 10.8949C9.2056 11.1028 9.74934 11.1594 10.2746 11.0575C10.7999 10.9556 11.2831 10.6998 11.6626 10.3227C12.0422 9.94549 12.301 9.46397 12.4062 8.93932C12.5114 8.41467 12.4582 7.87059 12.2534 7.37624C12.0486 6.8819 11.7014 6.45961 11.256 6.16308C10.8106 5.86655 10.2871 5.70916 9.752 5.71091C9.04224 5.71252 8.36175 5.99403 7.8583 6.49433C7.35484 6.99462 7.06905 7.67332 7.06299 8.38306V8.38306Z" fill="url(#paint0_linear_507_8507)"/>
<path d="M3.0171 17.3051C2.94066 15.2641 4.16656 13.7549 5.63136 13.1569C6.452 12.8196 7.23892 12.8269 8.04438 13.2406C9.17249 13.8201 10.3366 13.8207 11.4647 13.2406C12.2701 12.8275 13.0649 12.7988 13.8754 13.158C15.537 13.8949 16.4048 15.186 16.5015 16.9965C16.5403 17.7345 16.4773 18.4579 16.0974 19.1178C15.9627 19.3558 15.8048 19.5799 15.6258 19.7867C15.5496 19.8748 15.4566 19.9468 15.3523 19.9985C15.2479 20.0503 15.1343 20.0807 15.0181 20.088C14.9019 20.0953 14.7853 20.0794 14.6753 20.0412C14.5653 20.003 14.464 19.9432 14.3774 19.8654C14.2024 19.714 14.0926 19.501 14.0706 19.2707C14.0486 19.0404 14.1162 18.8105 14.2593 18.6288C15.2531 17.3107 14.6202 15.2894 13.0559 14.7661C12.9382 14.722 12.8122 14.7041 12.6869 14.7139C12.5615 14.7236 12.4398 14.7606 12.3303 14.8223C11.488 15.2681 10.5436 15.485 9.59124 15.4513C8.77377 15.4355 7.97108 15.2304 7.24622 14.8521C6.94663 14.6942 6.67402 14.6728 6.36488 14.8038C5.47397 15.1821 4.95123 15.8391 4.83264 16.8014C4.8062 17.0599 4.79944 17.3199 4.8124 17.5794C4.82563 17.9475 4.96448 18.3 5.20586 18.5782C5.5566 19.0003 5.52175 19.5478 5.1356 19.876C4.73821 20.2133 4.19074 20.1571 3.82819 19.731C3.54012 19.3998 3.3202 19.0151 3.18102 18.5988C3.04184 18.1825 2.98614 17.7429 3.0171 17.3051V17.3051Z" fill="url(#paint1_linear_507_8507)"/>
<path d="M18.756 8.41391C18.7211 9.81068 18.181 10.9821 17.0899 11.8904C16.8134 12.1208 16.4969 12.1754 16.1631 12.0393C16.0104 11.9823 15.8772 11.8827 15.7794 11.7523C15.6815 11.6219 15.6231 11.4662 15.6111 11.3036C15.5734 10.9613 15.719 10.6965 15.977 10.4756C16.6545 9.89556 16.977 9.15811 16.9444 8.26327C16.8994 7.05479 15.9793 5.9857 14.7905 5.76087C14.7146 5.74625 14.6381 5.73389 14.5623 5.7204C14.0687 5.63047 13.7613 5.21452 13.8158 4.71258C13.8414 4.48622 13.955 4.27898 14.1319 4.13548C14.3088 3.99198 14.535 3.9237 14.7618 3.94534C15.7173 4.03302 16.5475 4.41917 17.2541 5.05939C18.2377 5.95085 18.7211 7.0739 18.756 8.41391Z" fill="url(#paint2_linear_507_8507)"/>
<path d="M20.9951 17.3519C21.0412 18.2107 20.7753 19.0381 20.1654 19.7509C19.944 20.01 19.6635 20.1359 19.3223 20.0847C19.1672 20.0613 19.0208 19.9976 18.8979 19.9C18.775 19.8025 18.6797 19.6745 18.6215 19.5287C18.5634 19.3829 18.5444 19.2245 18.5665 19.0691C18.5886 18.9137 18.6509 18.7668 18.7473 18.643C19.763 17.3075 19.1065 15.2564 17.5023 14.7562C17.4219 14.7314 17.3393 14.7129 17.2612 14.6831C17.0517 14.6047 16.8794 14.4505 16.7782 14.251C16.677 14.0516 16.6544 13.8215 16.7148 13.6062C16.843 13.152 17.2735 12.8636 17.7333 12.9659C18.8659 13.2178 19.7349 13.8557 20.3554 14.8309C20.8186 15.5566 20.9945 16.2592 20.9951 17.3519Z" fill="url(#paint3_linear_507_8507)"/>
<defs>
<linearGradient id="paint0_linear_507_8507" x1="16.4073" y1="5.19235" x2="3.30092" y2="5.33784" gradientUnits="userSpaceOnUse">
<stop stop-color="#ED2A3A"/>
<stop offset="1" stop-color="#F7983B"/>
</linearGradient>
<linearGradient id="paint1_linear_507_8507" x1="19.7569" y1="13.9348" x2="0.071939" y2="14.3455" gradientUnits="userSpaceOnUse">
<stop stop-color="#ED2A3A"/>
<stop offset="1" stop-color="#F7983B"/>
</linearGradient>
<linearGradient id="paint2_linear_507_8507" x1="19.9449" y1="5.10875" x2="12.7309" y2="5.15723" gradientUnits="userSpaceOnUse">
<stop stop-color="#ED2A3A"/>
<stop offset="1" stop-color="#F7983B"/>
</linearGradient>
<linearGradient id="paint3_linear_507_8507" x1="22.0382" y1="13.9668" x2="15.7399" y2="14.0091" gradientUnits="userSpaceOnUse">
<stop stop-color="#ED2A3A"/>
<stop offset="1" stop-color="#F7983B"/>
</linearGradient>
</defs>
</svg>
